<svg width="33" height="32" viewBox="0 0 33 32" fill="none" xmlns="http://www.w3.org/2000/svg">
<path d="M29.6665 27H26.6665V5C26.6665 4.46957 26.4558 3.96086 26.0807 3.58579C25.7056 3.21071 25.1969 3 24.6665 3H8.6665C8.13607 3 7.62736 3.21071 7.25229 3.58579C6.87722 3.96086 6.6665 4.46957 6.6665 5V27H3.6665C3.40129 27 3.14693 27.1054 2.9594 27.2929C2.77186 27.4804 2.6665 27.7348 2.6665 28C2.6665 28.2652 2.77186 28.5196 2.9594 28.7071C3.14693 28.8946 3.40129 29 3.6665 29H29.6665C29.9317 29 30.1861 28.8946 30.3736 28.7071C30.5611 28.5196 30.6665 28.2652 30.6665 28C30.6665 27.7348 30.5611 27.4804 30.3736 27.2929C30.1861 27.1054 29.9317 27 29.6665 27ZM21.6665 27H8.6665V5H21.6665V27ZM16.6665 16.5C16.6665 16.2033 16.7545 15.9133 16.9193 15.6666C17.0841 15.42 17.3184 15.2277 17.5925 15.1142C17.8666 15.0006 18.1682 14.9709 18.4591 15.0288C18.7501 15.0867 19.0174 15.2296 19.2272 15.4393C19.4369 15.6491 19.5798 15.9164 19.6377 16.2074C19.6956 16.4983 19.6659 16.7999 19.5523 17.074C19.4388 17.3481 19.2465 17.5824 18.9999 17.7472C18.7532 17.912 18.4632 18 18.1665 18C17.7687 18 17.3871 17.842 17.1058 17.5607C16.8245 17.2794 16.6665 16.8978 16.6665 16.5Z" fill="#023047"/>
</svg>
