<svg width="33" height="32" viewBox="0 0 33 32" fill="none" xmlns="http://www.w3.org/2000/svg">
<path d="M23.8332 14.9999L16.3332 9.99994L23.2782 5.37494C23.4425 5.2653 23.6356 5.20679 23.8332 5.20679C24.0307 5.20679 24.2239 5.2653 24.3882 5.37494L30.0832 9.16744C30.2203 9.25872 30.3328 9.38248 30.4106 9.52772C30.4884 9.67296 30.5292 9.83517 30.5292 9.99994C30.5292 10.1647 30.4884 10.3269 30.4106 10.4722C30.3328 10.6174 30.2203 10.7412 30.0832 10.8324L23.8332 14.9999ZM9.38818 5.37494C9.22385 5.2653 9.03073 5.20679 8.83318 5.20679C8.63563 5.20679 8.44251 5.2653 8.27818 5.37494L2.58318 9.16744C2.44601 9.25872 2.33353 9.38248 2.25572 9.52772C2.17792 9.67296 2.13721 9.83517 2.13721 9.99994C2.13721 10.1647 2.17792 10.3269 2.25572 10.4722C2.33353 10.6174 2.44601 10.7412 2.58318 10.8324L8.83318 14.9999L16.3332 9.99994L9.38818 5.37494ZM30.0832 19.1674L23.8332 14.9999L16.3332 19.9999L23.2782 24.6249C23.4425 24.7346 23.6356 24.7931 23.8332 24.7931C24.0307 24.7931 24.2239 24.7346 24.3882 24.6249L30.0832 20.8324C30.2203 20.7412 30.3328 20.6174 30.4106 20.4722C30.4884 20.3269 30.5292 20.1647 30.5292 19.9999C30.5292 19.8352 30.4884 19.673 30.4106 19.5277C30.3328 19.3825 30.2203 19.2587 30.0832 19.1674ZM2.58318 19.1674C2.44601 19.2587 2.33353 19.3825 2.25572 19.5277C2.17792 19.673 2.13721 19.8352 2.13721 19.9999C2.13721 20.1647 2.17792 20.3269 2.25572 20.4722C2.33353 20.6174 2.44601 20.7412 2.58318 20.8324L8.27818 24.6249C8.44251 24.7346 8.63563 24.7931 8.83318 24.7931C9.03073 24.7931 9.22385 24.7346 9.38818 24.6249L16.3332 19.9999L8.83318 14.9999L2.58318 19.1674ZM21.4094 25.7862L16.6132 22.5887C16.531 22.5339 16.4345 22.5046 16.3357 22.5046C16.2369 22.5046 16.1403 22.5339 16.0582 22.5887L11.2594 25.7862C11.1911 25.8319 11.1351 25.8937 11.0964 25.9662C11.0576 26.0387 11.0374 26.1196 11.0374 26.2018C11.0374 26.284 11.0576 26.3649 11.0964 26.4374C11.1351 26.5099 11.1911 26.5717 11.2594 26.6174L15.7782 29.6249C15.9425 29.7346 16.1356 29.7931 16.3332 29.7931C16.5307 29.7931 16.7239 29.7346 16.8882 29.6249L21.4069 26.6124C21.4742 26.5666 21.5293 26.5049 21.5673 26.433C21.6054 26.361 21.6253 26.2807 21.6253 26.1993C21.6253 26.1179 21.6054 26.0377 21.5673 25.9657C21.5293 25.8937 21.4742 25.8321 21.4069 25.7862H21.4094Z" fill="#023047"/>
</svg>
