<svg width="33" height="32" viewBox="0 0 33 32" fill="none" xmlns="http://www.w3.org/2000/svg">
<path d="M6.1665 15H27.1753C27.3079 15 27.435 14.9473 27.5288 14.8536C27.6226 14.7598 27.6753 14.6326 27.6753 14.5V11C27.6754 10.8686 27.6496 10.7386 27.5994 10.6172C27.5492 10.4958 27.4756 10.3854 27.3828 10.2925L20.3828 3.29251C20.2895 3.19937 20.1788 3.12559 20.0569 3.07539C19.9351 3.02519 19.8045 2.99957 19.6728 3.00001H7.6665C7.13607 3.00001 6.62736 3.21072 6.25229 3.58579C5.87722 3.96086 5.6665 4.46957 5.6665 5.00001V14.5C5.6665 14.6326 5.71918 14.7598 5.81295 14.8536C5.90672 14.9473 6.0339 15 6.1665 15ZM19.6665 5.50001L25.1665 11H19.6665V5.50001ZM7.1665 18H5.1665C4.90129 18 4.64693 18.1054 4.4594 18.2929C4.27186 18.4804 4.1665 18.7348 4.1665 19V26C4.1665 26.2652 4.27186 26.5196 4.4594 26.7071C4.64693 26.8946 4.90129 27 5.1665 27H7.08275C9.5415 27 11.6103 25.065 11.6665 22.6088C11.681 22.0087 11.5753 21.4118 11.3557 20.8533C11.136 20.2947 10.8069 19.7857 10.3876 19.3562C9.96824 18.9268 9.46725 18.5856 8.91407 18.3526C8.3609 18.1197 7.76672 17.9998 7.1665 18ZM7.10525 25H6.1665V20H7.1665C7.50307 19.9998 7.83622 20.0675 8.14598 20.1991C8.45574 20.3307 8.73574 20.5235 8.96919 20.7659C9.20264 21.0084 9.38473 21.2955 9.50456 21.61C9.62438 21.9245 9.67946 22.2599 9.6665 22.5963C9.61525 23.9488 8.46025 25 7.1065 25H7.10525ZM28.439 24.465C28.599 24.666 28.6783 24.9194 28.6614 25.1758C28.6445 25.4321 28.5327 25.673 28.3478 25.8513C28.001 26.2114 27.5857 26.4985 27.1263 26.6958C26.6669 26.8931 26.1727 26.9965 25.6728 27C23.4665 27 21.6728 24.9813 21.6728 22.5C21.6728 20.0188 23.4678 18 25.6728 18C26.1727 18.0035 26.6669 18.1069 27.1263 18.3042C27.5857 18.5015 28.001 18.7886 28.3478 19.1488C28.5327 19.3271 28.6445 19.5679 28.6614 19.8242C28.6783 20.0806 28.599 20.334 28.439 20.535C28.3486 20.6424 28.2366 20.7296 28.1103 20.7908C27.984 20.8521 27.8462 20.8861 27.7058 20.8906C27.5655 20.895 27.4258 20.8699 27.2959 20.8168C27.1659 20.7638 27.0486 20.6839 26.9515 20.5825C26.7893 20.4037 26.5924 20.2598 26.3728 20.1597C26.1531 20.0595 25.9153 20.0052 25.674 20C24.5715 20 23.674 21.125 23.674 22.5C23.674 23.875 24.5715 25 25.674 25C25.9155 24.9947 26.1534 24.9403 26.3732 24.8402C26.5931 24.74 26.7902 24.5962 26.9528 24.4175C27.0498 24.3161 27.1672 24.2362 27.2971 24.1832C27.4271 24.1301 27.5668 24.105 27.7071 24.1095C27.8474 24.1139 27.9852 24.1479 28.1115 24.2092C28.2379 24.2704 28.3499 24.3576 28.4403 24.465H28.439ZM16.6665 18C14.4603 18 12.6665 20.0188 12.6665 22.5C12.6665 24.9813 14.4628 27 16.6665 27C18.8703 27 20.6665 24.9813 20.6665 22.5C20.6665 20.0188 18.8778 18 16.6665 18ZM16.6665 25C15.5628 25 14.6665 23.875 14.6665 22.5C14.6665 21.125 15.564 20 16.6665 20C17.769 20 18.6665 21.125 18.6665 22.5C18.6665 23.875 17.774 25 16.6665 25Z" fill="#023047"/>
</svg>
