<svg width="23" height="28" viewBox="0 0 23 28" fill="none" xmlns="http://www.w3.org/2000/svg">
<path d="M11.6665 0C8.75014 0.00330842 5.95417 1.1633 3.89198 3.22548C1.8298 5.28766 0.669812 8.08363 0.666504 11C0.666504 20.4125 10.6665 27.5212 11.0928 27.8188C11.2609 27.9365 11.4612 27.9997 11.6665 27.9997C11.8718 27.9997 12.0721 27.9365 12.2403 27.8188C12.6665 27.5212 22.6665 20.4125 22.6665 11C22.6632 8.08363 21.5032 5.28766 19.441 3.22548C17.3788 1.1633 14.5829 0.00330842 11.6665 0ZM11.6665 7C12.4576 7 13.231 7.2346 13.8888 7.67412C14.5466 8.11365 15.0593 8.73836 15.362 9.46927C15.6648 10.2002 15.744 11.0044 15.5896 11.7804C15.4353 12.5563 15.0543 13.269 14.4949 13.8284C13.9355 14.3878 13.2228 14.7688 12.4469 14.9231C11.6709 15.0775 10.8667 14.9983 10.1358 14.6955C9.40487 14.3928 8.78015 13.8801 8.34063 13.2223C7.9011 12.5645 7.6665 11.7911 7.6665 11C7.6665 9.93913 8.08793 8.92172 8.83808 8.17157C9.58822 7.42143 10.6056 7 11.6665 7Z" fill="#023047"/>
</svg>
