<svg width="26" height="24" viewBox="0 0 26 24" fill="none" xmlns="http://www.w3.org/2000/svg">
<path d="M25.555 8.16748L13.555 0.167478C13.3907 0.0578393 13.1975 -0.000671387 13 -0.000671387C12.8025 -0.000671387 12.6093 0.0578393 12.445 0.167478L0.445 8.16748C0.308014 8.25887 0.195718 8.38269 0.118087 8.52792C0.0404564 8.67315 -0.000106749 8.8353 2.10981e-07 8.99998V22C2.10981e-07 22.5304 0.210714 23.0391 0.585787 23.4142C0.960859 23.7893 1.46957 24 2 24H24C24.5304 24 25.0391 23.7893 25.4142 23.4142C25.7893 23.0391 26 22.5304 26 22V8.99998C26.0001 8.8353 25.9595 8.67315 25.8819 8.52792C25.8043 8.38269 25.692 8.25887 25.555 8.16748ZM9.09 16L2 21V10.9412L9.09 16ZM11.1362 17H14.8638L21.9425 22H4.0575L11.1362 17ZM16.91 16L24 10.9412V21L16.91 16Z" fill="#023047"/>
</svg>
