<svg width="33" height="32" viewBox="0 0 33 32" fill="none" xmlns="http://www.w3.org/2000/svg">
<path d="M31.3332 15.1975C31.3302 15.62 31.1914 16.0304 30.9373 16.3681C30.6831 16.7057 30.3272 16.9526 29.922 17.0725L29.897 17.08L20.147 19.81L17.417 29.56L17.4095 29.585C17.2895 29.9901 17.0424 30.3459 16.7049 30.6C16.3673 30.8541 15.957 30.993 15.5345 30.9962H15.497C15.0826 31.0001 14.6776 30.8733 14.3395 30.6339C14.0013 30.3945 13.7472 30.0546 13.6132 29.6625L5.45822 7.67623C5.45558 7.66975 5.45349 7.66306 5.45197 7.65623C5.3301 7.30227 5.31002 6.92122 5.394 6.55641C5.47799 6.1916 5.66268 5.85769 5.92707 5.59265C6.19145 5.32762 6.5249 5.14211 6.88951 5.05722C7.25411 4.97234 7.63521 4.99148 7.98947 5.11248L8.00947 5.11873L29.9995 13.2762C30.3976 13.4123 30.7419 13.6722 30.9818 14.0179C31.2218 14.3635 31.3449 14.7769 31.3332 15.1975Z" fill="#023047"/>
</svg>
