<svg width="26" height="25" viewBox="0 0 26 25" fill="none" xmlns="http://www.w3.org/2000/svg">
<path d="M25.3185 18.885C25.0956 20.5788 24.2638 22.1335 22.9784 23.2588C21.693 24.3841 20.0419 25.0031 18.3335 25C8.40851 25 0.333507 16.925 0.333507 6.99999C0.330445 5.2916 0.949366 3.64052 2.07467 2.35511C3.19998 1.0697 4.75472 0.237875 6.44851 0.0149912C6.87682 -0.0373076 7.31057 0.0503186 7.68499 0.264789C8.05941 0.47926 8.35443 0.809072 8.52601 1.20499L11.166 7.09874V7.11374C11.2974 7.41681 11.3516 7.74769 11.3239 8.07684C11.2962 8.40598 11.1874 8.72314 11.0073 8.99999C10.9848 9.03374 10.961 9.06499 10.936 9.09624L8.33351 12.1812C9.26976 14.0837 11.2598 16.0562 13.1873 16.995L16.2298 14.4062C16.2596 14.3811 16.2909 14.3578 16.3235 14.3362C16.6001 14.1517 16.9184 14.0391 17.2495 14.0086C17.5806 13.978 17.914 14.0305 18.2198 14.1612L18.236 14.1687L24.1248 16.8075C24.5214 16.9785 24.852 17.2732 25.0672 17.6477C25.2823 18.0222 25.3705 18.4562 25.3185 18.885Z" fill="#023047"/>
</svg>
